<svg width="36" height="30" viewBox="0 0 36 30" fill="none" xmlns="http://www.w3.org/2000/svg">
<path d="M34.7143 0.902223H25.5214C23.5487 0.902223 21.6201 1.46874 19.9607 2.53749L18 3.79508L16.0393 2.53749C14.3816 1.46895 12.4508 0.901169 10.4786 0.902223H1.28571C0.574554 0.902223 0 1.47678 0 2.18794V25.0094C0 25.7205 0.574554 26.2951 1.28571 26.2951H10.4786C12.4513 26.2951 14.3799 26.8616 16.0393 27.9303L17.8232 29.0795C17.8754 29.1116 17.9357 29.1317 17.996 29.1317C18.0562 29.1317 18.1165 29.1156 18.1688 29.0795L19.9527 27.9303C21.6161 26.8616 23.5487 26.2951 25.5214 26.2951H34.7143C35.4254 26.2951 36 25.7205 36 25.0094V2.18794C36 1.47678 35.4254 0.902223 34.7143 0.902223ZM10.4786 23.4022H2.89286V3.79508H10.4786C11.9009 3.79508 13.283 4.20088 14.4763 4.96829L16.4371 6.22588L16.7143 6.40669V24.9692C14.8018 23.9406 12.6643 23.4022 10.4786 23.4022ZM33.1071 23.4022H25.5214C23.3357 23.4022 21.1982 23.9406 19.2857 24.9692V6.40669L19.5629 6.22588L21.5237 4.96829C22.717 4.20088 24.0991 3.79508 25.5214 3.79508H33.1071V23.4022ZM13.3754 8.93794H5.91027C5.75357 8.93794 5.625 9.07454 5.625 9.23928V11.0473C5.625 11.212 5.75357 11.3486 5.91027 11.3486H13.3714C13.5281 11.3486 13.6567 11.212 13.6567 11.0473V9.23928C13.6607 9.07454 13.5321 8.93794 13.3754 8.93794ZM22.3393 9.23928V11.0473C22.3393 11.212 22.4679 11.3486 22.6246 11.3486H30.0857C30.2424 11.3486 30.371 11.212 30.371 11.0473V9.23928C30.371 9.07454 30.2424 8.93794 30.0857 8.93794H22.6246C22.4679 8.93794 22.3393 9.07454 22.3393 9.23928ZM13.3754 14.5629H5.91027C5.75357 14.5629 5.625 14.6995 5.625 14.8643V16.6723C5.625 16.837 5.75357 16.9736 5.91027 16.9736H13.3714C13.5281 16.9736 13.6567 16.837 13.6567 16.6723V14.8643C13.6607 14.6995 13.5321 14.5629 13.3754 14.5629ZM30.0897 14.5629H22.6246C22.4679 14.5629 22.3393 14.6995 22.3393 14.8643V16.6723C22.3393 16.837 22.4679 16.9736 22.6246 16.9736H30.0857C30.2424 16.9736 30.371 16.837 30.371 16.6723V14.8643C30.375 14.6995 30.2464 14.5629 30.0897 14.5629Z" fill="#1890FF"/>
</svg>
